PathFileType	4	(X/Y/Z)	61_1_13_p1_0-498.trc
DataRate	CameraRate	NumFrames	NumMarkers	Units	OrigDataRate	OrigDataStartFrame	OrigNumFrames
51.0	51.0	6	27	m	51.0	124	499
Frame#	Time	RHip			RKnee			RAnkle			RBigToe			RSmallToe			RHeel			LHip			LKnee			LAnkle			LBigToe			LSmallToe			LHeel			Neck			Head			Nose			RShoulder			RElbow			RWrist			RThumb			RIndex			RPinky			LShoulder			LElbow			LWrist			LThumb			LIndex			LPinky			
		X1	Y1	Z1	X2	Y2	Z2	X3	Y3	Z3	X4	Y4	Z4	X5	Y5	Z5	X6	Y6	Z6	X7	Y7	Z7	X8	Y8	Z8	X9	Y9	Z9	X10	Y10	Z10	X11	Y11	Z11	X12	Y12	Z12	X13	Y13	Z13	X14	Y14	Z14	X15	Y15	Z15	X16	Y16	Z16	X17	Y17	Z17	X18	Y18	Z18	X19	Y19	Z19	X20	Y20	Z20	X21	Y21	Z21	X22	Y22	Z22	X23	Y23	Z23	X24	Y24	Z24	X25	Y25	Z25	X26	Y26	Z26	X27	Y27	Z27	
124	2.4313725490196076	0.2838609881680463	0.6484443007190059	0.9874461698915943	0.28806580933974896	0.7047393704146198	1.3995325020369629	0.28391789401468887	0.907447075351126	1.7920581699106732	0.2947040768471359	0.6860635741629043	1.8168978886042848	0.35837130102248294	0.7334661695432171	1.8086192224707034	0.2691083645635929	1.0062171651241454	1.8499927575129165	0.0826730563913618	0.6547632960498868	0.9791423518994031	0.09677906412185042	0.7471824918104849	1.390215357162092	0.12663706593019425	0.9013442151140783	1.7954448470202304	0.1518267995327261	0.6985711119620563	1.8328163184220605	0.08495310282875716	0.750936707889284	1.82684856741079	0.14737410376283605	0.9938395242075746	1.8555801391259876	0.2670247991642483	0.48561758835370067	0.4813340445539388	0.3897671897747033	0.3226110544705905	0.25951348235838584	0.34872632491159905	0.31094283111505455	0.4215662623083535	0.39680098549774595	0.564400671209343	0.5357319409210305	0.37822697746356215	0.5668129310834826	0.7887236863077441	0.3393339820588334	0.5487145989654449	1.023512487602722	0.26474903130197547	0.608464647144709	1.1483221559950503	0.27655072373245804	0.6139704596485474	1.1798359670091947	0.36636756463816605	0.6311308455592669	1.1628037560121434	0.13701292349152216	0.46612553922124267	0.4994477683258644	0.10741429945403669	0.3753134077175791	0.699585941571796	0.2143267056233408	0.22412345516074964	0.5264438225117856	0.2514560323327492	0.22981684929276333	0.47384291905130776	0.24966975908459388	0.18227769677141914	0.4456973390442738	0.22192474737451295	0.16862889937682912	0.46780468955658605
125	2.450980392156863	0.28112730888721277	0.6351721841761659	0.9864015274942544	0.2880948615940998	0.7046878605798301	1.3995824780483765	0.2772167531003728	0.9268858253449179	1.8034876195916287	0.3042048844933055	0.6721045092567375	1.8107437838369873	0.35751244981199737	0.7342100010117469	1.8132572920303986	0.27175934493851545	1.0223836023203514	1.8548526701427313	0.0813302198045067	0.6430096309242886	0.9825497677979581	0.09684459923278682	0.7473502901676606	1.390355313226602	0.13307681004984065	0.8847517210815626	1.789359172330749	0.15415587241446188	0.7141568117529061	1.8380739866552775	0.08485040417439894	0.7508292685101495	1.826491572257975	0.1473845259450058	0.9935741005611785	1.8555156022198396	0.2759723698365586	0.4738360909453863	0.48154670808538036	0.39042326127279436	0.32420339725590164	0.2658788048313944	0.3512667801720639	0.3212095772750604	0.4205814760431432	0.39723338495526644	0.5641779915125142	0.5395144482824354	0.37785018793964525	0.5673127313630324	0.7852788769672293	0.33925915953181	0.5485061679823763	1.0234737271052223	0.26477746788701606	0.6083304044783906	1.1480837002130169	0.27673334719579235	0.6135103100959944	1.1794524727593596	0.3660525735674158	0.6324258438539767	1.1615157519311008	0.13711713603108638	0.4657369732836593	0.4994130502613845	0.10759752454929329	0.3746415431358484	0.696012624498856	0.21899396528637874	0.21349999396215744	0.5266337145209763	0.2521225078631352	0.2283938227412188	0.4736197884153294	0.2539035372840085	0.17147837099469115	0.4460933831898374	0.22207630885285418	0.16830506536534107	0.467113066371203
126	2.4705882352941178	0.27764325442922577	0.6324039118895827	0.9902842125325828	0.28722162166328646	0.7021545735088265	1.3950336919323538	0.277144001594938	0.9269319051622273	1.8035529310928438	0.3012725429645418	0.7009888109597658	1.8215336064768206	0.35835217312312323	0.7368626227276021	1.818208124581358	0.26896342472372725	1.0061964665818	1.8499058323332453	0.08128457320006632	0.6430418785044545	0.9826154160840029	0.09590371821855205	0.7486715254448135	1.39463350504028	0.12660774148044848	0.9008643987372722	1.7953017184991615	0.1519940992837804	0.6992095604691125	1.8328330018876922	0.08460812941283016	0.7508915503830775	1.826561750488921	0.14542674126149074	0.9770345559569091	1.8498400148504615	0.2760287197938188	0.47392780146820046	0.4815855011379983	0.3943211694367982	0.325703865979184	0.2656266684980832	0.3513777183876307	0.3211523574519219	0.42062780052375653	0.39748911865025893	0.5670282018379815	0.5464992379796203	0.37832773423495564	0.5670678207673945	0.7888709733747472	0.33868621728086223	0.546464119912625	1.0199891074905838	0.2647763071163126	0.6082278788727953	1.1480689929624712	0.27676380135248163	0.6135155499097479	1.1794997518543184	0.3659793994855932	0.6323031761475925	1.161662305846259	0.13741946788686216	0.46771286491950104	0.503128777830531	0.10757265227470944	0.3743239637553164	0.696205865678111	0.21904377792221497	0.21338527603540805	0.5266315543227206	0.2505969884293491	0.21518479562095705	0.4713253440489479	0.2537487549452879	0.1706308501038689	0.44599001025981444	0.21705327516625572	0.16944165931487007	0.46335996105057053
127	2.4901960784313726	0.27766049978353424	0.6323827369739243	0.9904291998780731	0.2879970913208633	0.7007480692039141	1.3902991703193743	0.2782386415870453	0.9253645057170307	1.798748787152471	0.3023153206550386	0.6837669546244373	1.8150092541940361	0.3582775827343772	0.7363688016880952	1.8180366411881848	0.2718414081386061	1.0225467028494652	1.8551173109380898	0.081790679396184	0.6416573209333911	0.9786909035924412	0.09516318852789707	0.7328687651646739	1.3872888645887873	0.12755577632189896	0.9046153768090527	1.8010311314345189	0.15094821443777542	0.6958564007366362	1.8277039411282026	0.08479584243834141	0.750576502349624	1.8262965604930173	0.14745369191038935	0.9940576115379754	1.855913698325289	0.27612392680708103	0.4743884785237545	0.4852281123696794	0.39483274064454205	0.32625520809171	0.2690214316960494	0.35143589274864556	0.3209498095984016	0.4208731832365755	0.3929397904905689	0.5804135051930597	0.5465337754191826	0.3776141471582821	0.5680269477038865	0.7895806269581761	0.3388030121280546	0.5494697765045413	1.0273964766786778	0.2646542190608477	0.6086122603233696	1.1481253586421991	0.27301730034833294	0.6128433917398823	1.1798883354920913	0.3633695647191688	0.61935811383414	1.1604195286656558	0.1429299189269031	0.4553806197045375	0.5035788705217302	0.11358795098582297	0.3627702652649936	0.6956227288419515	0.2191326940616462	0.2131243783911878	0.5265320183359258	0.2896515352107427	0.1377637478654263	0.46814486816909073	0.2538670789925754	0.17112893802579354	0.44313071473911825	0.22216326993611551	0.16607013856351607	0.4596180169406191
128	2.5098039215686274	0.27760849570297924	0.6321466186888434	0.990337020586554	0.2872077691652765	0.7020187782680715	1.3950508310886094	0.2771457987429604	0.9273235437454701	1.803690171680901	0.3066872807816314	0.6854694519170088	1.8152534510712448	0.35842117159669157	0.7363572812109862	1.818135186890225	0.27174625837165106	1.0227143730986168	1.8551477667670935	0.08176795194985491	0.6416957349736966	0.9786909779401987	0.09434771118547604	0.7342097759154657	1.391606299521953	0.1276294862773779	0.9049851315861055	1.8012574536127584	0.15083743943630024	0.6959097681762008	1.8278185333394363	0.08479959167004718	0.7509327130519335	1.8266345649114437	0.1475216888954393	0.9943529621728265	1.8561466259298935	0.27628672863513004	0.47438562198136025	0.4854233995989441	0.39724507577730517	0.33591769841024066	0.2644722773722283	0.3514551190379464	0.32075833514636365	0.4208477225932044	0.3974993410945572	0.5670156352827904	0.5467820134311879	0.37762163994387415	0.5680285346534595	0.7896902551685909	0.3387692526449785	0.5493145458441712	1.0273987035287324	0.2646589536168494	0.6086547364078453	1.148047760314129	0.2724796296833107	0.6135698227303237	1.1764045007367314	0.35857608015168746	0.6329798591032514	1.1629481410831768	0.14260125238309204	0.4535596369702766	0.4999576688374482	0.11056067178918269	0.3515130756241461	0.6974557234016211	0.21922457424200079	0.21290383267583057	0.5265769227748921	0.2567364259005123	0.21722318671145333	0.4708406835561086	0.2541494525776797	0.1720152174860221	0.44332369456344656	0.22620391256253247	0.1576622577909621	0.46219003110562823
129	2.5294117647058822	0.27817947104879076	0.6344487529604681	0.9942439457436841	0.28452467256242897	0.6884908015246793	1.392015216275127	0.27717427865981137	0.9270363082315196	1.8036253682179326	0.30698476126889807	0.6856837144055916	1.8154142867514766	0.36295149478667577	0.7380993475972383	1.8185178528634312	0.26913826784863115	1.0062226320509866	1.8501676724405736	0.0812298992294794	0.6425719818423422	0.9823568600604966	0.09441673743514209	0.7344038203469803	1.3916811015635953	0.12771787012099836	0.9045361230953627	1.801131837379359	0.15157052285875192	0.6986468345283908	1.8329335017895576	0.08495121885946848	0.7510213473710928	1.8269353346097585	0.14560709214371287	0.9782359237473687	1.8506238733872828	0.27646970988981384	0.47426747858856405	0.4855030431684741	0.3973824099312591	0.336109148064099	0.26444197452149826	0.35148002324185035	0.32066699765867995	0.4208432894519384	0.3975707070373993	0.5668467840193325	0.5468967298459957	0.3781528088205927	0.5700603569045838	0.7932223254156822	0.33874133018917724	0.5493842770240007	1.0274275348392143	0.26466230003433733	0.6086287781738281	1.1480864629046261	0.2729676239840392	0.6128482669547065	1.1799417314232792	0.3633043447640048	0.6193191323986218	1.1604281254856377	0.14264201539850022	0.45368755009433326	0.4998047542808008	0.11025307907382173	0.3512573844592358	0.6981108375709523	0.21936081505410387	0.21297535902691017	0.5265671020355407	0.25814029825773865	0.23080600736465004	0.4772236729537315	0.259009567248608	0.18400750171421507	0.44201881986830704	0.22612091491265005	0.16586435576324346	0.46198674787999755
